HIERARCHY
ROOT Hips
{
	OFFSET -3.958830 18.904000 13.208200
	CHANNELS 6 Xposition Yposition Zposition Zrotation Yrotation Xrotation 
	JOINT LHipJoint
	{
		OFFSET 0.000000 0.000000 0.000000
		CHANNELS 3 Zrotation Yrotation Xrotation
		JOINT LeftUpLeg
		{
			OFFSET 1.800000 -1.400000 0.085000
			CHANNELS 3 Zrotation Yrotation Xrotation
			JOINT LeftLeg
			{
				OFFSET 2.215000 -6.000000 0.000000
				CHANNELS 3 Zrotation Yrotation Xrotation
				JOINT LeftFoot
				{
					OFFSET 2.500000 -6.900000 0.000000
					CHANNELS 3 Zrotation Yrotation Xrotation
					JOINT LeftToeBase
					{
						OFFSET 0.200000 -0.500000 1.950000
						CHANNELS 3 Zrotation Yrotation Xrotation
						End Site
						{
							OFFSET 0.000000 0.000000 0.000000
						}
					}
				}
			}
		}
	}
	JOINT RHipJoint
	{
		OFFSET 0.000000 0.000000 0.000000
		CHANNELS 3 Zrotation Yrotation Xrotation
		JOINT RightUpLeg
		{
			OFFSET -1.800000 -1.400000 0.085000
			CHANNELS 3 Zrotation Yrotation Xrotation
			JOINT RightLeg
			{
				OFFSET -2.215000 -6.000000 0.000000
				CHANNELS 3 Zrotation Yrotation Xrotation
				JOINT RightFoot
				{
					OFFSET -2.500000 -6.900000 0.000000
					CHANNELS 3 Zrotation Yrotation Xrotation
					JOINT RightToeBase
					{
						OFFSET -0.200000 -0.500000 1.950000
						CHANNELS 3 Zrotation Yrotation Xrotation
						End Site
						{
							OFFSET 0.000000 0.000000 0.000000
						}
					}
				}
			}
		}
	}
	JOINT LowerBack
	{
		OFFSET 0.000000 0.000000 0.000000
		CHANNELS 3 Zrotation Yrotation Xrotation
		JOINT Spine
		{
			OFFSET -0.087000 1.940000 -0.288900
			CHANNELS 3 Zrotation Yrotation Xrotation
			JOINT Spine1
			{
				OFFSET 0.000000 1.950000 0.060000
				CHANNELS 3 Zrotation Yrotation Xrotation
				JOINT Neck
				{
					OFFSET 0.000000 0.000000 0.000000
					CHANNELS 3 Zrotation Yrotation Xrotation
					JOINT Neck1
					{
						OFFSET 0.000000 1.600000 0.340000
						CHANNELS 3 Zrotation Yrotation Xrotation
						JOINT Head
						{
							OFFSET 0.000000 1.667000 -0.240000
							CHANNELS 3 Zrotation Yrotation Xrotation
							End Site
							{
								OFFSET 0.000000 0.000000 0.000000
							}
						}
					}
				}
				JOINT LeftShoulder
				{
					OFFSET 0.000000 0.000000 0.000000
					CHANNELS 3 Zrotation Yrotation Xrotation
					JOINT LeftArm
					{
						OFFSET 2.700000 1.550000 -0.730000
						CHANNELS 3 Zrotation Yrotation Xrotation
						JOINT LeftForeArm
						{
							OFFSET 5.450000 0.000000 0.000000
							CHANNELS 3 Zrotation Yrotation Xrotation
							JOINT LeftHand
							{
								OFFSET 3.450000 0.000000 0.000000
								CHANNELS 3 Zrotation Yrotation Xrotation
								JOINT LeftHandIndex1
								{
									OFFSET 0.750000 0.000000 0.000000
									CHANNELS 3 Zrotation Yrotation Xrotation
									End Site
									{
										OFFSET 0.000000 0.000000 0.000000
									}
								}
							}
						}
					}
				}
				JOINT RightShoulder
				{
					OFFSET 0.000000 0.000000 0.000000
					CHANNELS 3 Zrotation Yrotation Xrotation
					JOINT RightArm
					{
						OFFSET -2.700000 1.550000 -0.730000
						CHANNELS 3 Zrotation Yrotation Xrotation
						JOINT RightForeArm
						{
							OFFSET -5.450000 0.000000 0.000000
							CHANNELS 3 Zrotation Yrotation Xrotation
							JOINT RightHand
							{
								OFFSET -3.450000 0.000000 0.000000
								CHANNELS 3 Zrotation Yrotation Xrotation
								JOINT RightHandIndex1
								{
									OFFSET -0.750000 0.000000 0.000000
									CHANNELS 3 Zrotation Yrotation Xrotation
									End Site
									{
										OFFSET 0.000000 0.000000 0.000000
									}
								}
							}
						}
					}
				}
			}
		}
	}
}
MOTION
Frames: 8
Frame Time: 0.016667
0.103190 17.168810 -2.554220 -10.981829 -40.586046 -1.090757 -15.397737 14.676959 2.955110 14.788524 -0.680103 -4.165265 -9.137032 8.297807 17.424631 0.137617 5.337619 2.644015 0.622150 0.475840 0.580110 17.899237 -9.682454 3.342271 0.760257 0.609533 -5.728106 10.741967 -4.123532 2.222815 -0.745071 -2.685599 3.478692 0.051400 -0.385560 0.080290 -1.934274 -5.572957 -7.994035 -1.615899 -0.863344 30.439262 3.818931 1.868064 -3.860518 0.205780 -7.533553 -9.246992 -34.533628 23.106505 53.703380 -2.019460 12.627220 -26.977300 -36.789554 -0.157886 1.664299 -42.719890 0.927537 -7.822293 -159.467086 -72.468928 139.994865 -3.073764 3.043614 0.895530 -0.472570 0.545240 0.095960 37.690567 5.421834 4.305705 47.814394 -11.277519 -12.633952 9.267873 13.410652 -0.129360 2.344240 -0.887063 0.041710 0.188420 -0.226540 -0.253390 
0.047910 17.149750 -2.550740 -10.528406 -40.848637 -1.215091 -15.402627 14.679059 2.924702 14.659829 -0.661216 -4.342320 -9.030502 8.463323 18.320145 0.162209 5.367738 2.622225 0.627800 0.497550 0.577430 17.891327 -9.701749 3.346617 0.378596 0.599490 -5.803716 11.288341 -4.176810 2.134748 -0.753496 -2.716426 3.473799 0.054190 -0.397230 0.076940 -1.900798 -5.524975 -7.985932 -2.228285 -0.483908 29.703996 3.925043 2.126641 -3.615269 0.217592 -7.331859 -9.494241 -34.093816 23.334826 54.507294 -2.212190 13.103940 -26.659810 -36.815247 -0.555561 2.040738 -42.779556 0.911523 -7.860494 -161.712858 -72.817797 143.050968 -3.061147 3.063753 0.884880 -0.474690 0.555270 0.102570 37.761132 5.835740 4.419967 47.723516 -10.679920 -12.256961 7.907768 13.205528 -0.160676 2.368292 -0.888260 0.055530 0.179760 -0.238570 -0.246810 
-0.004980 17.132610 -2.543860 -10.379358 -40.825108 -0.986482 -15.393513 14.668317 2.913783 14.712645 -0.668447 -4.565458 -9.001000 8.554288 18.732301 0.163888 5.393153 2.610626 0.615030 0.492060 0.558600 17.895673 -9.729558 3.339459 0.189259 0.675791 -6.250417 11.782981 -4.271883 2.549587 -0.735892 -2.728935 3.476924 0.054640 -0.384130 0.068750 -1.928702 -5.449120 -7.972473 -2.086094 -0.444162 28.959720 3.749105 2.118371 -3.234423 0.225628 -7.356295 -9.723970 -34.160218 23.488067 54.332777 -2.390790 13.299550 -25.650970 -36.569505 -0.815713 2.353181 -43.249129 0.676033 -7.843815 -164.572272 -73.284338 146.898462 -3.067271 3.072737 0.869130 -0.461260 0.541590 0.106150 37.488551 6.095362 4.493687 47.694932 -10.200826 -11.987600 7.213519 13.051238 -0.185367 2.379636 -0.888222 0.050440 0.182820 -0.233510 -0.241360 
-0.052670 17.122340 -2.533760 -10.056222 -40.390627 -0.967438 -15.361408 14.649203 2.908274 14.631926 -0.689748 -4.604294 -8.880202 8.512263 18.762624 0.143062 5.383359 2.621520 0.608800 0.482770 0.542710 17.916651 -9.794557 3.318198 -0.301816 0.742007 -6.766600 12.314292 -4.440187 3.311491 -0.719909 -2.759849 3.468118 0.060870 -0.361000 0.061580 -2.030864 -5.320984 -7.933556 -1.702510 -0.697762 28.670999 3.227429 1.775208 -2.880683 0.065578 -7.615945 -9.841575 -34.820949 23.742447 53.045325 -1.930940 13.151900 -25.209030 -36.140455 -0.954285 2.544808 -43.690444 0.151011 -7.746993 -167.295906 -73.640414 150.459940 -3.077482 3.081752 0.863250 -0.450530 0.520160 0.110090 37.289062 6.187801 4.419324 47.605947 -9.650910 -11.739607 6.619491 12.769910 -0.217773 2.383503 -0.885940 0.036200 0.195850 -0.223240 -0.239080 
-0.091660 17.116960 -2.516880 -10.011174 -39.724061 -0.610019 -15.314449 14.621436 2.902782 14.645179 -0.719590 -4.711819 -8.645748 8.345938 18.426320 0.121497 5.317649 2.652327 0.603990 0.479730 0.516090 17.951534 -9.865502 3.304093 -0.603653 0.821865 -7.375688 12.800628 -4.627059 4.156384 -0.704810 -2.792218 3.462364 0.065130 -0.331750 0.065080 -2.194921 -5.163994 -7.892218 -0.561959 -1.286589 28.399544 2.370181 1.172308 -2.607642 0.014328 -7.944783 -9.877347 -35.673908 23.969107 51.491170 -1.686660 12.897280 -24.650650 -35.658737 -0.842675 2.624548 -44.495014 -0.521366 -7.601466 -170.088158 -74.204558 154.203409 -3.089669 3.099164 0.847410 -0.433420 0.500260 0.122520 36.771714 5.911897 4.194028 47.489415 -9.036175 -11.406694 6.662962 12.230049 -0.220322 2.389006 -0.883850 0.033830 0.204180 -0.213150 -0.225900 
-0.132320 17.119270 -2.501960 -9.709853 -39.046208 -0.235967 -15.251801 14.568144 2.895639 14.443663 -0.741490 -4.875572 -8.442641 8.133065 17.907511 0.102307 5.212739 2.699503 0.590380 0.469170 0.481630 18.003403 -9.963535 3.288898 -0.805635 0.915717 -8.189259 12.897971 -4.739709 4.981276 -0.676823 -2.791231 3.461079 0.065790 -0.297960 0.065410 -2.416933 -4.923883 -7.834573 0.571546 -1.872142 28.069618 1.199798 0.489476 -2.406858 -0.111645 -8.379604 -9.925518 -36.665723 24.096226 49.202748 -1.014350 12.491090 -23.936600 -34.815168 -0.628440 2.713150 -45.238008 -1.246650 -7.358183 -173.733995 -74.615684 158.943671 -3.105952 3.131121 0.822830 -0.417590 0.473500 0.131240 36.018207 5.487752 3.981200 47.738614 -8.668692 -11.434122 7.663281 12.648366 -0.199364 2.389997 -0.898988 0.031450 0.209070 -0.199970 -0.207460 
-0.170590 17.127370 -2.485850 -9.324324 -38.475912 0.190559 -15.175505 14.482125 2.883665 14.071641 -0.713923 -4.940469 -8.212054 7.822259 16.982004 0.097500 5.031457 2.769306 0.593010 0.485150 0.450450 18.070442 -10.084231 3.279852 -1.093746 1.004502 -9.088358 12.962352 -4.811652 5.632806 -0.654767 -2.788525 3.460262 0.072350 -0.279730 0.072080 -2.693241 -4.586689 -7.770912 1.844284 -2.439396 27.707581 -0.356395 -0.242441 -2.182505 -0.193534 -8.832916 -9.929054 -37.257342 23.923636 46.876522 -0.179910 12.011140 -23.499600 -33.756369 -0.317895 2.763421 -45.892982 -1.901822 -7.110557 -177.011681 -74.742642 163.129015 -3.109662 3.188095 0.787420 -0.408170 0.458210 0.148100 34.912778 4.943488 3.733376 48.552313 -8.345965 -11.727228 9.081033 13.747508 -0.157653 2.396743 -0.936405 0.050170 0.196270 -0.203630 -0.180370 
-0.208020 17.134700 -2.472200 -8.833611 -37.787670 0.822041 -15.105005 14.384127 2.872297 13.640429 -0.740163 -5.357137 -8.105453 7.550973 16.179187 0.083928 4.861877 2.839703 0.584280 0.484600 0.414330 18.137904 -10.184150 3.268444 -1.299486 1.132535 -10.205978 12.924092 -4.821718 6.159067 -0.618392 -2.756484 3.471671 0.074280 -0.249630 0.066980 -2.966147 -4.271907 -7.702600 3.063830 -3.038557 27.250569 -1.944285 -1.027397 -2.105130 -0.309777 -9.365242 -9.793334 -37.913279 23.670616 43.916509 0.826000 11.445740 -22.951800 -32.349215 0.475830 2.660425 -47.031084 -2.733009 -6.710002 179.034707 -75.033555 168.286427 -3.121980 3.237040 0.749640 -0.395260 0.426140 0.159220 33.529594 3.894724 3.347353 49.375261 -8.085860 -12.089291 11.422232 15.276712 -0.005971 2.398116 -0.974557 0.056750 0.194280 -0.197790 -0.157350 
